<svg xmlns="http://www.w3.org/2000/svg" viewBox="0 0 618.93 456.13"><defs><style>.cls-1{fill:#eaf2ff;}.cls-2{fill:#cad8ed;}.cls-3{fill:#9eb6d8;}.cls-4{fill:#fff;}.cls-5{fill:#1b1738;}.cls-14,.cls-15,.cls-16,.cls-17,.cls-18,.cls-19,.cls-22,.cls-24,.cls-26,.cls-28,.cls-6,.cls-7{fill:none;}.cls-6{stroke:#9a93ba;opacity:0.15;}.cls-14,.cls-15,.cls-17,.cls-18,.cls-19,.cls-22,.cls-24,.cls-26,.cls-28,.cls-6,.cls-7{stroke-linecap:round;}.cls-14,.cls-15,.cls-18,.cls-19,.cls-22,.cls-24,.cls-26,.cls-28,.cls-6,.cls-7{stroke-linejoin:round;}.cls-14,.cls-15,.cls-18,.cls-19,.cls-28,.cls-6,.cls-7{stroke-width:2px;}.cls-7{stroke:#1b1738;}.cls-8{fill:#3f3563;}.cls-9{fill:#6e42e8;}.cls-10{fill:#7c5ded;}.cls-11{fill:#51005b;}.cls-12{fill:#feaca2;}.cls-13{fill:#e06a7e;}.cls-14{stroke:#e06a7e;}.cls-15{stroke:#51005b;}.cls-16,.cls-17,.cls-18,.cls-24{stroke:#fff;}.cls-16,.cls-17{stroke-miterlimit:10;}.cls-19{stroke:#442aa0;}.cls-20{fill:#ff6368;}.cls-21{fill:#9aabe2;}.cls-22{stroke:#9aabe2;}.cls-22,.cls-24{stroke-width:6px;}.cls-23{fill:#01abff;}.cls-25{fill:#8ced60;}.cls-26{stroke:#5baf2f;stroke-width:2.3px;}.cls-27{fill:#4ac2c0;}.cls-28{stroke:#1395a4;}</style></defs><g id="Layer_2" data-name="Layer 2"><g id="Layer_2-2" data-name="Layer 2"><path class="cls-1" d="M573.93,362.56l-.82.49c-22.26,13.34-40.06,21.72-55.49,27.49-6.88,2.57-13.29,4.62-19.41,6.36-22.25,6.33-40.68,8.52-64.17,16.57-4.07,1.4-8.3,3-12.72,4.77-1,.41-2,.83-3.07,1.27A471.3,471.3,0,0,1,370,436.33c-12.73,3.77-25.42,7.13-37.09,10q-3.62.9-7.25,1.7-6.49,1.47-13.05,2.64c-6,1.1-12.08,2-18.14,2.75s-11.87,1.3-17.82,1.69h0a313.29,313.29,0,0,1-73-3.66l-.74-.13q-8.21-1.41-16.35-3.27-7.12-1.62-14.18-3.6c-2-.56-4-1.15-6-1.75-2.3-.7-4.58-1.41-6.84-2.15a282.21,282.21,0,0,1-41.6-17.33,237.7,237.7,0,0,1-50.55-34.79Q61.25,382.9,55.69,377a207.88,207.88,0,0,1-18-21.74,200.25,200.25,0,0,1-12.47-19.61c-36.4-65.28-33-145,7.55-208.29C116.38-3.2,313-42.75,474.83,52.89S650.57,316.45,573.93,362.56Z"/><path class="cls-2" d="M498.21,169.38V396.9c-22.25,6.33-40.68,8.52-64.17,16.57-4.07,1.4-8.3,3-12.72,4.77-1,.41-2,.83-3.07,1.27A471.3,471.3,0,0,1,370,436.33H314.56a38.8,38.8,0,0,1-4.19-.22,39.25,39.25,0,0,1-23.79-11.45c-.22-.21-.42-.42-.62-.64A39.33,39.33,0,0,1,275.18,397V169.38a38.48,38.48,0,0,1,.66-7.17A39.37,39.37,0,0,1,314.56,130H458.83A39.38,39.38,0,0,1,498.21,169.38Z"/><rect class="cls-3" x="275.18" y="130" width="183.25" height="248.73" rx="32.16"/><path class="cls-4" d="M186.28,355.3l-.53,3.37-13.37,85.8c-2-.56-4-1.15-6-1.75-2.3-.7-4.58-1.41-6.84-2.15l12.59-80.71.71-4.56Z"/><path class="cls-4" d="M72.54,355.3l-5.17,33.15Q61.25,382.9,55.69,377l3.39-21.74Z"/><path class="cls-5" d="M336.37,353.36v.19l-.12,1.75-.74,11.52a63.11,63.11,0,0,1-1.92,11.91A62.45,62.45,0,0,1,319,405.25c-1.37,1.48-2.82,2.9-4.32,4.25a62.42,62.42,0,0,1-7.58,5.78,58.12,58.12,0,0,1-5.06,3A61.54,61.54,0,0,1,287,423.8c-.33.08-.66.16-1,.22a62.38,62.38,0,0,1-12.9,1.34H208l-5.11,26q-8.21-1.41-16.35-3.27-7.12-1.62-14.18-3.6c-2-.56-4-1.15-6-1.75-2.3-.7-4.58-1.41-6.84-2.15a282.21,282.21,0,0,1-41.6-17.33l6.88-30.95a40.32,40.32,0,0,1,35.86-31.43l11.45-1,13.64-1.19,38.6-3.37,22.22-1.94Z"/><path class="cls-6" d="M318.05,370.53a35,35,0,0,1-1.91,8.2c-.26.74-.55,1.51-.89,2.31A37.16,37.16,0,0,1,304.11,396a38.81,38.81,0,0,1-13.42,6.82,100.55,100.55,0,0,1-14.54,2.87c-20.5,2.75-47.66,2.65-63.4,4.91l-.5.07c-5.42.8-9.43,1.9-11.23,3.51-5.62,5-11.31,22.76-14.46,33.93"/><line class="cls-7" x1="208.02" y1="425.37" x2="215.02" y2="400.98"/><path class="cls-8" d="M428.38,353.36c0,.65-.09,1.3-.16,1.94a76,76,0,0,1-1.63,10.34v0a76.93,76.93,0,0,1-75,59.7H300l-1.49,7.57-4,20.51q-8.89,1.11-17.82,1.69h0a313.29,313.29,0,0,1-73-3.66l5.81-26.11,3.29-14.8,1.64-7.39,2.42-10.88a40.32,40.32,0,0,1,35.86-31.43l22.51-2,2.36-.2L298,356.9l13.29-1.16,5-.44,20-1.75,2.21-.19Z"/><path class="cls-6" d="M410.06,370.53a35,35,0,0,1-1.91,8.2,37.1,37.1,0,0,1-25.45,24c-15.64,4.59-42.6,5-63.07,6.37-1.69.11-3.34.22-4.93.35-3,.24-5.81.52-8.35.84l-2.1.29c-5.43.8-9.43,1.9-11.23,3.51-2,1.83-4.11,5.37-6.06,9.66-.13.28-.25.57-.38.86-4.6,10.45-8.47,24.87-9.9,30.47h0"/><line class="cls-7" x1="300.03" y1="425.37" x2="307.03" y2="400.98"/><path class="cls-9" d="M457.37,228.42l-4.43,15.16-2.67,9.12-6.15,21.05L437,276.8l-7.05,3v65.67H268.46l.19-3.74.48-9.13,1.83-35.4.48-9.12L273,258.72l-14.08-5.07L231,243.58l-5.8-2.09,20.58-33.31,6.07-9.82a78.44,78.44,0,0,1,7.08-9.72,80,80,0,0,1,47.65-27.1l41.28-6.95h25.67l32.36,9.06,18.43,5.16c1.22.34,2.41.73,3.58,1.16a47.19,47.19,0,0,1,9.13,4.48,48,48,0,0,1,19.58,24.6,46.51,46.51,0,0,1,2.25,9.13A47.75,47.75,0,0,1,457.37,228.42Z"/><path class="cls-10" d="M437,208.18h21.83a46.51,46.51,0,0,0-2.25-9.13H437v-24.6a47.19,47.19,0,0,0-9.13-4.48v29.08h-35.4v-35.4h13.39l-32.36-9.06H347.81l-41.28,6.95a80.14,80.14,0,0,0-12.25,3.08v34.43h-35.4V188.64a78.44,78.44,0,0,0-7.08,9.72l-6.07,9.82h4v35.4H231l27.93,10.07v-1h35.4v35.4H271.44l-.48,9.12h23.32v35.4H269.13l-.48,9.13h25.63v3.74h9.12v-3.74h35.4v3.74h9.13v-3.74h35.4v3.74h9.12v-3.74h35.4v3.74h2.08V279.82l7.05-3V252.7h13.29l2.67-9.12H437Zm-142.7,35.4h-35.4v-35.4h35.4Zm44.52,89H303.4v-35.4h35.4Zm0-44.52H303.4V252.7h35.4Zm0-44.52H303.4v-35.4h35.4Zm0-44.53H303.4v-35.4h35.4Zm44.53,133.57h-35.4v-35.4h35.4Zm0-44.52h-35.4V252.7h35.4Zm0-44.52h-35.4v-35.4h35.4Zm0-44.53h-35.4v-35.4h35.4Zm44.52,133.57h-35.4v-35.4h35.4Zm0-44.52h-35.4V252.7h35.4Zm0-44.52h-35.4v-35.4h35.4Z"/><path class="cls-11" d="M322.9,110.42c-7.45-4.41-6.48-13.31-6.48-13.31s-5.23,1.06-7.17-3.87,6.2-11,6.2-11-9,1.26-7.55-4.93S320.45,59.56,351,60.53s50.53,11.61,45,25.16c10.94,7.84,10.37,20.56,2.23,28.11s-10.94,29-29.13,21.73Z"/><circle class="cls-12" cx="390.14" cy="118.24" r="11.77"/><path class="cls-12" d="M375.68,155.1c0,7-6.88,13.83-17.5,14.68-9.2.74-16.59-.84-18.45-5.3a13.21,13.21,0,0,1-.69-2.1c-1.23-5.15-1.45-13.22-3-20.95l25.45-15.22,13-7.77C372.66,129.41,375.68,148.15,375.68,155.1Z"/><path class="cls-13" d="M373.48,137c-15.3,15.9-25.57,24.84-33.75,27.49a13.21,13.21,0,0,1-.69-2.1c-1.23-5.15-1.45-13.22-3-20.95l25.45-15.22c5.83.53,11.06,1.24,11.22,1.47Z"/><path class="cls-12" d="M321.56,96.2s-.56,21.92,0,31.9,10.22,20.28,24.65,20.92,30.93-12.41,35.52-23.16v-7.42s-3.41-9.07-3.93-14.88c-.64-6.71,3.49-7.07,1.94-9.28s-19.08,3.21-31.93-1.3c5.22,4.64,4.57,11-2.14,8.64s-14.94-9.16-14.94-9.16c4.23,5.29,2.68,9-.74,7.74A89.64,89.64,0,0,1,321.56,96.2Z"/><path class="cls-14" d="M389.43,122.38c-.37-5.9,5.38-6.27,5.38-6.27"/><path class="cls-14" d="M347,111.48l-5.11,9a1.71,1.71,0,0,0,1,2.5l4.9,1.35"/><circle cx="330.73" cy="116.32" r="2.64"/><circle cx="360.82" cy="116.32" r="2.64"/><path class="cls-15" d="M327.83,105.8s3.43-2.69,8.22,0"/><path class="cls-15" d="M358.59,105.8s3.44-2.69,8.22,0"/><path class="cls-14" d="M351,133.5a10.61,10.61,0,0,0,10.83-3.14"/><circle class="cls-16" cx="359.73" cy="117.95" r="9.86"/><circle class="cls-16" cx="329.99" cy="117.95" r="9.86"/><path class="cls-16" d="M339.71,116.32s4.51-5.65,10.16,0"/><line class="cls-17" x1="369.59" y1="116.32" x2="381.73" y2="116.32"/><path class="cls-12" d="M393.54,262.4l-10.83,37.93L325.42,297l-19-4.77a21.91,21.91,0,0,0-23,8.23c-6.29,8.51-13.79,19-14.82,22-1.8,5.29,10.58,7.09,13,3.09.78,6.71,8.78,6.41,11.36,2.18.64,7.24,9.16,6.6,10.84,3.76-.13,3.74,5.42,7.22,9.42,4.64s10.84-10.32,10.84-10.32l72.13,20.69a25.35,25.35,0,0,0,31.29-17.13l16.58-55.69Z"/><path class="cls-14" d="M281.67,325.62s6.55-14,13-18.51"/><path class="cls-14" d="M293,327.8s6.26-13.73,14-17"/><path class="cls-14" d="M303.87,331.56s5.42-11,14.74-15.19"/><path class="cls-14" d="M382.71,300.33s24,1.36,32.32,3.49"/><path class="cls-18" d="M330.73,160.59s.2,17.42,25.12,17.29,25.88-18.32,25.88-18.32"/><path class="cls-19" d="M393.54,262.4s13.17-45.42,16.52-53.16"/><path class="cls-19" d="M414.58,194.14s2.71-8.52,7.35-9.94"/><path class="cls-19" d="M273,258.72s3.68-51.71,6.26-67.29"/><rect class="cls-2" x="130.1" y="335.69" width="316.16" height="19.61" rx="9.81"/><rect class="cls-3" x="5.16" y="335.69" width="316.16" height="19.61" rx="9.81"/><path class="cls-4" d="M320.09,168.43l13.24,113.29a5.42,5.42,0,0,1-5.49,6.22H214.55a7.19,7.19,0,0,1-7-6.22L194.35,168.43a5.42,5.42,0,0,1,5.5-6.22H313.14A7.19,7.19,0,0,1,320.09,168.43Z"/><path class="cls-20" d="M320.09,168.43l1.72,14.74H196.07l-1.72-14.74a5.42,5.42,0,0,1,5.5-6.22H313.14A7.19,7.19,0,0,1,320.09,168.43Z"/><ellipse class="cls-4" cx="306.85" cy="172.69" rx="1.93" ry="2.17" transform="translate(-29.32 277.41) rotate(-46.67)"/><ellipse class="cls-4" cx="295.11" cy="172.69" rx="1.93" ry="2.17" transform="translate(-33.01 268.87) rotate(-46.67)"/><ellipse class="cls-4" cx="283.37" cy="172.69" rx="1.93" ry="2.17" transform="translate(-36.69 260.33) rotate(-46.67)"/><path class="cls-21" d="M298,207.69H222.6a3.29,3.29,0,0,1-3.18-2.84h0a2.48,2.48,0,0,1,2.51-2.84h75.4a3.29,3.29,0,0,1,3.18,2.84h0A2.48,2.48,0,0,1,298,207.69Z"/><path class="cls-21" d="M300.36,227.91H225a3.27,3.27,0,0,1-3.17-2.84h0a2.47,2.47,0,0,1,2.51-2.83h75.4a3.27,3.27,0,0,1,3.17,2.83h0A2.48,2.48,0,0,1,300.36,227.91Z"/><path class="cls-21" d="M260.64,248.14H227.32a3.29,3.29,0,0,1-3.17-2.84h0a2.48,2.48,0,0,1,2.51-2.84H260a3.29,3.29,0,0,1,3.17,2.84h0A2.48,2.48,0,0,1,260.64,248.14Z"/><polyline class="cls-22" points="284.44 248.14 303.06 260.53 287.26 272.33"/><rect class="cls-2" x="233.78" y="325.62" width="128" height="10.06" rx="5.03"/><rect class="cls-3" x="280.61" y="329.75" width="8.13" height="2.71" rx="1.35"/><circle class="cls-3" cx="296" cy="331.11" r="1.78"/><path class="cls-2" d="M90.83,212.07H245.28a7.94,7.94,0,0,1,7.64,6.78l14.15,110.06a5.83,5.83,0,0,1-5.9,6.78H106.71a7.94,7.94,0,0,1-7.64-6.78L84.92,218.85A5.84,5.84,0,0,1,90.83,212.07Z"/><ellipse class="cls-3" cx="176" cy="273.88" rx="7.23" ry="8.01" transform="translate(-143.79 212.85) rotate(-46.47)"/><rect class="cls-23" x="49.03" y="173.11" width="105.81" height="89.29" rx="5.94"/><polyline class="cls-24" points="71.09 204.85 91.42 217.75 71.09 233.37"/><line class="cls-24" x1="103.61" y1="233.37" x2="127.8" y2="233.37"/><path class="cls-4" d="M325.69,448.05q-6.49,1.47-13.05,2.64l-2.27-14.58-1.68-10.75-1.57-10.08-.77-4.94-.71-4.56L304.11,396l-2.77-17.79L298,356.9l-.25-1.6h13.47l.07.44,3.58,23,.36,2.31L319,405.25l.61,3.9,2.53,16.21,1.71,11Z"/><path class="cls-4" d="M434,413.47c-4.07,1.4-8.3,3-12.72,4.77l-4.51-29-1.65-10.54-3.65-23.43H425l1.62,10.35h0l2,13Z"/><path class="cls-25" d="M560.64,318.42c-15.74-14.25,23.74-58.76,49-49.6S583.73,340.28,560.64,318.42Z"/><path class="cls-26" d="M554.58,358.14c3.09-54.19,33.29-70.2,33.29-70.2"/><path class="cls-25" d="M529.36,323.29C540.69,313,512.28,281,494.08,287.6S512.75,339,529.36,323.29Z"/><path class="cls-26" d="M533.72,351.87c-2.22-39-24-50.51-24-50.51"/><path class="cls-27" d="M546.93,298.75c18.28-3.41,10.06-55-12.88-59.79S519.65,304.48,546.93,298.75Z"/><path class="cls-28" d="M544.13,344.27c8.32-40.39-5.25-80.79-5.25-80.79"/><path class="cls-4" d="M576.61,345l-3.5,18.05c-22.26,13.34-40.06,21.72-55.49,27.49L508.8,345a6.3,6.3,0,0,1,6.18-7.5h55.44A6.31,6.31,0,0,1,576.61,345Z"/><path class="cls-3" d="M203.55,137h6.89V127.3h-6.88a19.25,19.25,0,0,0-2.16-5.23h0l4.86-4.86-6.83-6.83-4.87,4.87h0a19.18,19.18,0,0,0-5.22-2.16h0V106.2h-9.66v6.89a19.18,19.18,0,0,0-5.22,2.16l-4.87-4.87-6.83,6.83,4.87,4.87a19.18,19.18,0,0,0-2.16,5.22h-6.89V137h6.9a19.48,19.48,0,0,0,2.15,5.22h0l-4.87,4.87,6.83,6.83,4.88-4.87h0a18.56,18.56,0,0,0,5.21,2.16v6.89h9.66v-6.89h0a19.18,19.18,0,0,0,5.22-2.16l4.87,4.87,6.83-6.83-4.86-4.87h0A19.48,19.48,0,0,0,203.55,137Zm-19,3.55a8.38,8.38,0,1,1,8.38-8.38A8.38,8.38,0,0,1,184.51,140.51Z"/></g></g></svg>